<?xml version="1.0" encoding="UTF-8" standalone="no"?>
<!-- Created with Inkscape (http://www.inkscape.org/) -->

<svg
   xmlns:dc="http://purl.org/dc/elements/1.1/"
   xmlns:cc="http://creativecommons.org/ns#"
   xmlns:rdf="http://www.w3.org/1999/02/22-rdf-syntax-ns#"
   xmlns:svg="http://www.w3.org/2000/svg"
   xmlns="http://www.w3.org/2000/svg"
   xmlns:sodipodi="http://sodipodi.sourceforge.net/DTD/sodipodi-0.dtd"
   xmlns:inkscape="http://www.inkscape.org/namespaces/inkscape"
   id="svg2"
   version="1.1"
   inkscape:version="0.48.4 r9939"
   width="142.5"
   height="142.5"
   xml:space="preserve"
   sodipodi:docname="iSaverRunner.ai"><metadata
     id="metadata8"><rdf:RDF><cc:Work
         rdf:about=""><dc:format>image/svg+xml</dc:format><dc:type
           rdf:resource="http://purl.org/dc/dcmitype/StillImage" /><dc:title></dc:title></cc:Work></rdf:RDF></metadata><defs
     id="defs6"><clipPath
       clipPathUnits="userSpaceOnUse"
       id="clipPath18"><path
         d="M 0,114 114,114 114,0 0,0 0,114 z"
         id="path20" /></clipPath></defs><sodipodi:namedview
     pagecolor="#ffffff"
     bordercolor="#666666"
     borderopacity="1"
     objecttolerance="10"
     gridtolerance="10"
     guidetolerance="10"
     inkscape:pageopacity="0"
     inkscape:pageshadow="2"
     inkscape:window-width="640"
     inkscape:window-height="480"
     id="namedview4"
     showgrid="false"
     inkscape:zoom="1.6561404"
     inkscape:cx="71.25"
     inkscape:cy="71.25"
     inkscape:window-x="47"
     inkscape:window-y="37"
     inkscape:window-maximized="0"
     inkscape:current-layer="g10" /><g
     id="g10"
     inkscape:groupmode="layer"
     inkscape:label="iSaverRunner"
     transform="matrix(1.25,0,0,-1.25,0,142.5)"><path
       d="M 0,0 114,0 114,114 0,114 0,0 z"
       style="fill:#249ff5;fill-opacity:1;fill-rule:nonzero;stroke:none"
       id="path12" /><g
       id="g14"><g
         id="g16"
         clip-path="url(#clipPath18)"><g
           id="g22"
           transform="translate(93.001,75.0293)"><path
             d="m 0,0 -71.835,0 c -1.742,0 -3.154,-1.411 -3.154,-3.152 l 0,-49.741 c 0,-1.741 1.412,-3.152 3.154,-3.152 l 25.749,0 c -0.999,-3.061 -3.681,-6.665 -9.567,-8.381 l 0.285,0 c -0.447,0 -0.809,-0.355 -0.809,-0.794 0,-0.438 0.362,-0.795 0.809,-0.795 l 39.633,0 c 0.446,0 0.809,0.357 0.809,0.795 0,0.439 -0.363,0.794 -0.809,0.794 l 0.436,0 c -5.886,1.716 -8.567,5.32 -9.566,8.381 l 24.865,0 c 1.741,0 3.153,1.411 3.153,3.152 l 0,49.741 C 3.153,-1.411 1.741,0 0,0"
             style="fill:#000000;fill-opacity:1;fill-rule:nonzero;stroke:none"
             id="path24" /></g><g
           id="g26"
           transform="translate(93.001,75.0293)"><path
             d="m 0,0 -71.835,0 c -1.742,0 -3.154,-1.411 -3.154,-3.152 l 0,-49.741 c 0,-1.741 1.412,-3.152 3.154,-3.152 l 25.749,0 c -0.999,-3.061 -3.681,-6.665 -9.567,-8.381 l 0.285,0 c -0.447,0 -0.809,-0.355 -0.809,-0.794 0,-0.438 0.362,-0.795 0.809,-0.795 l 39.633,0 c 0.446,0 0.809,0.357 0.809,0.795 0,0.439 -0.363,0.794 -0.809,0.794 l 0.436,0 c -5.886,1.716 -8.567,5.32 -9.566,8.381 l 24.865,0 c 1.741,0 3.153,1.411 3.153,3.152 l 0,49.741 C 3.153,-1.411 1.741,0 0,0 z"
             style="fill:none;stroke:#666666;stroke-opacity:1;stroke-width:0.5;stroke-linecap:butt;stroke-linejoin:miter;stroke-miterlimit:4;stroke-dasharray:none"
             id="path28" /></g><g
           id="g30"
           transform="translate(87.2354,30.373)"><path
             d="m 0,0 c 0,-1.741 -1.413,-3.152 -3.154,-3.152 l -53.263,0 c -1.742,0 -3.154,1.411 -3.154,3.152 l 0,32.576 c 0,1.74 1.412,3.153 3.154,3.153 l 53.263,0 C -1.413,35.729 0,34.316 0,32.576 L 0,0 z"
             style="fill:#ffffff;fill-opacity:1;fill-rule:nonzero;stroke:none"
             id="path32" /></g><g
           id="g34"
           transform="translate(87.2354,30.373)"><path
             d="m 0,0 c 0,-1.741 -1.413,-3.152 -3.154,-3.152 l -53.263,0 c -1.742,0 -3.154,1.411 -3.154,3.152 l 0,32.576 c 0,1.74 1.412,3.153 3.154,3.153 l 53.263,0 C -1.413,35.729 0,34.316 0,32.576 L 0,0 z"
             style="fill:none;stroke:#000000;stroke-opacity:1;stroke-width:3;stroke-linecap:butt;stroke-linejoin:miter;stroke-miterlimit:4;stroke-dasharray:none"
             id="path36" /></g><g
           id="g38"
           transform="translate(38.7407,26.6641)"><path
             d="M 0,0 C 5.236,-1.637 8.886,-6.824 20.806,-9.67 31.761,-5.48 37.767,4.415 40.884,7.65 39.786,15.176 37.817,29.973 33.926,35.701 27.052,41.405 20.997,57.883 26.638,68.486 30.416,74.023 10.568,49.139 18.984,35.336 26.715,21.564 23.86,22.374 22.811,22.95 20.156,25.768 21.365,28.261 15.522,34.607 7.54,43.255 6.33,45.537 14.976,63.022 17.296,65.112 4.826,78.058 4.017,81.601 4.826,78.058 13.26,61.582 5.136,55.372 -1.543,46.113 -1.142,39.737 -1.788,36.794 0.14,33.334 3.84,26.609 5.501,20.4 8.549,16.521 8.744,8.718 4.043,15.301 2.999,20.724 -8.271,29.636 -5.615,44.625 0.98,61.077 -14.326,30.645 -12.356,18.579 -6.252,9.122 1.199,2.734 0,0"
             style="fill:#f79634;fill-opacity:1;fill-rule:nonzero;stroke:none"
             id="path40" /></g><g
           id="g42"
           transform="translate(38.7407,26.6641)"><path
             d="M 0,0 C 5.236,-1.637 8.886,-6.824 20.806,-9.67 31.761,-5.48 37.767,4.415 40.884,7.65 39.786,15.176 37.817,29.973 33.926,35.701 27.052,41.405 20.997,57.883 26.638,68.486 30.416,74.023 10.568,49.139 18.984,35.336 26.715,21.564 23.86,22.374 22.811,22.95 20.156,25.768 21.365,28.261 15.522,34.607 7.54,43.255 6.33,45.537 14.976,63.022 17.296,65.112 4.826,78.058 4.017,81.601 4.826,78.058 13.26,61.582 5.136,55.372 -1.543,46.113 -1.142,39.737 -1.788,36.794 0.14,33.334 3.84,26.609 5.501,20.4 8.549,16.521 8.744,8.718 4.043,15.301 2.999,20.724 -8.271,29.636 -5.615,44.625 0.98,61.077 -14.326,30.645 -12.356,18.579 -6.252,9.122 1.199,2.734 0,0 z"
             style="fill:none;stroke:#000000;stroke-opacity:1;stroke-width:0.9;stroke-linecap:round;stroke-linejoin:round;stroke-miterlimit:8;stroke-dasharray:none"
             id="path44" /></g><g
           id="g46"
           transform="translate(36.0786,28.5566)"><path
             d="m 0,0 c 4.205,-4.554 9.111,-10.509 21.025,-9.808 11.914,0.7 19.272,11.559 20.324,17.163 1.052,5.605 -2.102,21.018 -7.709,26.973 -5.606,5.954 -11.915,23.118 -7.009,31.526 4.908,8.406 -15.768,-17.516 -7.358,-31.876 8.41,-14.362 5.435,-13.52 3.68,-11.911 -2.103,1.927 -0.844,4.523 -7.009,11.209 -8.235,8.933 -9.496,11.31 -0.526,27.323 2.453,4.378 -10.537,17.864 -10.537,17.864 0,0 8.786,-17.164 1.076,-25.22 C -1.752,45.186 -1.334,38.545 -0.701,35.379 0,31.875 3.855,24.87 6.308,19.616 8.76,14.361 8.963,6.231 4.906,14.712 2.979,18.74 -8.761,28.022 -4.38,42.909 0.876,60.773 -15.068,29.074 -10.863,17.864 -6.658,6.654 0,0 0,0"
             style="fill:#ee333e;fill-opacity:1;fill-rule:nonzero;stroke:none"
             id="path48" /></g><g
           id="g50"
           transform="translate(36.0786,28.5566)"><path
             d="m 0,0 c 4.205,-4.554 9.111,-10.509 21.025,-9.808 11.914,0.7 19.272,11.559 20.324,17.163 1.052,5.605 -2.102,21.018 -7.709,26.973 -5.606,5.954 -11.915,23.118 -7.009,31.526 4.908,8.406 -15.768,-17.516 -7.358,-31.876 8.41,-14.362 5.435,-13.52 3.68,-11.911 -2.103,1.927 -0.844,4.523 -7.009,11.209 -8.235,8.933 -9.496,11.31 -0.526,27.323 2.453,4.378 -10.537,17.864 -10.537,17.864 0,0 8.786,-17.164 1.076,-25.22 C -1.752,45.186 -1.334,38.545 -0.701,35.379 0,31.875 3.855,24.87 6.308,19.616 8.76,14.361 8.963,6.231 4.906,14.712 2.979,18.74 -8.761,28.022 -4.38,42.909 0.876,60.773 -15.068,29.074 -10.863,17.864 -6.658,6.654 0,0 0,0 z"
             style="fill:none;stroke:#000000;stroke-opacity:1;stroke-width:0.5;stroke-linecap:round;stroke-linejoin:round;stroke-miterlimit:6;stroke-dasharray:none"
             id="path52" /></g></g></g></g></svg>